{
    "asset" : {
        "generator" : "Khronos glTF Blender I/O v1.5.17",
        "version" : "2.0"
    },
    "extensionsUsed" : [
        "KHR_texture_transform",
        "KHR_lights_punctual"
    ],
    "extensionsRequired" : [
        "KHR_texture_transform",
        "KHR_lights_punctual"
    ],
    "extensions" : {
        "KHR_lights_punctual" : {
            "lights" : [
                {
                    "color" : [
                        1,
                        1,
                        1
                    ],
                    "intensity" : 1,
                    "type" : "directional",
                    "name" : "Sun"
                },
                {
                    "color" : [
                        1,
                        1,
                        1
                    ],
                    "intensity" : 1,
                    "type" : "directional",
                    "name" : "Sun.001"
                }
            ]
        }
    },
    "scene" : 0,
    "scenes" : [
        {
            "name" : "Scene",
            "nodes" : [
                0,
                2,
                4,
                5
            ]
        }
    ],
    "nodes" : [
        {
            "mesh" : 0,
            "name" : "Plane",
            "rotation" : [
                0.4758628308773041,
                -0.5230244398117065,
                0.5230244398117065,
                0.4758628010749817
            ],
            "scale" : [
                -8.171549797058105,
                7.857259750366211,
                5.1072187423706055
            ],
            "translation" : [
                -0.16150136291980743,
                8.85253620147705,
                -0.015284369699656963
            ]
        },
        {
            "extensions" : {
                "KHR_lights_punctual" : {
                    "light" : 0
                }
            },
            "name" : "Sun_Orientation",
            "rotation" : [
                -0.7071067690849304,
                0,
                0,
                0.7071067690849304
            ]
        },
        {
            "children" : [
                1
            ],
            "name" : "Sun",
            "rotation" : [
                0.2879495918750763,
                -0.410092294216156,
                0.4101676940917969,
                0.7620182633399963
            ],
            "translation" : [
                -13.367195129394531,
                16.548234939575195,
                2.7337379455566406
            ]
        },
        {
            "extensions" : {
                "KHR_lights_punctual" : {
                    "light" : 1
                }
            },
            "name" : "Sun.001_Orientation",
            "rotation" : [
                -0.7071067690849304,
                0,
                0,
                0.7071067690849304
            ]
        },
        {
            "children" : [
                3
            ],
            "name" : "Sun.001",
            "rotation" : [
                -0.08103203773498535,
                0.04929240047931671,
                -0.34014129638671875,
                0.9355790615081787
            ],
            "translation" : [
                19.160367965698242,
                23.200572967529297,
                -8.344463348388672
            ]
        },
        {
            "mesh" : 1,
            "name" : "Plane.001",
            "rotation" : [
                0.4758628308773041,
                -0.5230244398117065,
                0.5230244398117065,
                0.4758628010749817
            ],
            "scale" : [
                8.171549797058105,
                7.857259750366211,
                5.1072187423706055
            ],
            "translation" : [
                0.011837288737297058,
                8.963057518005371,
                0.10320571064949036
            ]
        }
    ],
    "materials" : [
        {
            "doubleSided" : true,
            "name" : "1Vizitika",
            "pbrMetallicRoughness" : {
                "baseColorTexture" : {
                    "extensions" : {
                        "KHR_texture_transform" : {
                            "scale" : [
                                -1,
                                1
                            ]
                        }
                    },
                    "index" : 0
                },
                "metallicFactor" : 0,
                "roughnessFactor" : 0.5
            }
        },
        {
            "doubleSided" : true,
            "name" : "1VizitikaZadnja",
            "pbrMetallicRoughness" : {
                "baseColorTexture" : {
                    "index" : 1
                },
                "metallicFactor" : 0,
                "roughnessFactor" : 0.5
            }
        }
    ],
    "meshes" : [
        {
            "name" : "Plane.006",
            "primitives" : [
                {
                    "attributes" : {
                        "POSITION" : 0,
                        "TEXCOORD_0" : 1
                    },
                    "indices" : 2,
                    "material" : 0
                }
            ]
        },
        {
            "name" : "Plane.007",
            "primitives" : [
                {
                    "attributes" : {
                        "POSITION" : 3,
                        "TEXCOORD_0" : 4
                    },
                    "indices" : 5,
                    "material" : 1
                }
            ]
        }
    ],
    "textures" : [
        {
            "sampler" : 0,
            "source" : 0
        },
        {
            "sampler" : 0,
            "source" : 1
        }
    ],
    "images" : [
        {
            "bufferView" : 3,
            "mimeType" : "image/jpeg",
            "name" : "sprednja-stran1"
        },
        {
            "bufferView" : 7,
            "mimeType" : "image/jpeg",
            "name" : "zadnja-stran1-tisk"
        }
    ],
    "accessors" : [
        {
            "bufferView" : 0,
            "componentType" : 5126,
            "count" : 4,
            "max" : [
                1,
                0,
                1
            ],
            "min" : [
                -1,
                0,
                -1
            ],
            "type" : "VEC3"
        },
        {
            "bufferView" : 1,
            "componentType" : 5126,
            "count" : 4,
            "type" : "VEC2"
        },
        {
            "bufferView" : 2,
            "componentType" : 5123,
            "count" : 6,
            "type" : "SCALAR"
        },
        {
            "bufferView" : 4,
            "componentType" : 5126,
            "count" : 8,
            "max" : [
                1,
                0,
                1
            ],
            "min" : [
                -1,
                -0.0010000000474974513,
                -1
            ],
            "type" : "VEC3"
        },
        {
            "bufferView" : 5,
            "componentType" : 5126,
            "count" : 8,
            "type" : "VEC2"
        },
        {
            "bufferView" : 6,
            "componentType" : 5123,
            "count" : 36,
            "type" : "SCALAR"
        }
    ],
    "bufferViews" : [
        {
            "buffer" : 0,
            "byteLength" : 48,
            "byteOffset" : 0
        },
        {
            "buffer" : 0,
            "byteLength" : 32,
            "byteOffset" : 48
        },
        {
            "buffer" : 0,
            "byteLength" : 12,
            "byteOffset" : 80
        },
        {
            "buffer" : 0,
            "byteLength" : 1093452,
            "byteOffset" : 92
        },
        {
            "buffer" : 0,
            "byteLength" : 96,
            "byteOffset" : 1093544
        },
        {
            "buffer" : 0,
            "byteLength" : 64,
            "byteOffset" : 1093640
        },
        {
            "buffer" : 0,
            "byteLength" : 72,
            "byteOffset" : 1093704
        },
        {
            "buffer" : 0,
            "byteLength" : 605776,
            "byteOffset" : 1093776
        }
    ],
    "samplers" : [
        {
            "magFilter" : 9729,
            "minFilter" : 9987
        }
    ],
    "buffers" : [
        {
            "byteLength" : 1699552,
            "uri" : "data:application/octet-stream;base64,"
        }
    ]
}
